# Blender 3.6.5
# www.blender.org
mtllib asteroid.mtl
o Icosphere
v 0.000932 -0.364218 -0.000521
v 0.720632 -0.428382 0.410168
v -0.070461 -0.066294 0.729860
v -0.886499 -0.420048 -0.020394
v -0.809768 -0.660433 -0.621443
v 0.631181 -0.413278 -0.513936
v 0.547106 0.463368 0.991670
v -0.698084 0.371148 0.791327
v -0.784986 0.428887 -0.443186
v 0.592859 0.477160 -0.853911
v 1.230264 0.439170 -0.029980
v -0.034111 0.534811 -0.022266
v -0.006447 -0.432898 0.412691
v 0.410814 -0.256041 0.221549
v 0.651589 -0.482015 0.541104
v 0.319326 -0.407534 -0.000000
v 0.347203 -0.814478 -0.320984
v -0.525730 -0.827459 -0.013584
v -0.674701 -0.482743 0.351764
v -0.350047 -0.830080 -0.456402
v -0.731742 -0.656166 -0.404676
v -0.231373 -0.150311 -0.902722
v 0.915453 -0.000215 0.307868
v 1.202122 -0.006120 -0.331880
v 0.283182 0.011574 0.972836
v 0.813591 0.010086 0.813243
v -1.004670 0.089407 0.756539
v -0.649144 0.013117 0.911087
v -0.716385 -0.293254 -0.629571
v -0.902754 0.003745 -0.248715
v 0.893691 -0.005412 -0.789127
v -0.045054 0.398504 -0.878455
v 0.806668 0.558282 0.544297
v -0.016209 0.284157 0.836295
v -0.453101 0.509200 0.207478
v -0.223700 0.520052 -0.778639
v 1.368103 0.509853 -0.550707
v 0.316523 0.474936 0.304235
v 0.714558 0.871955 -0.025082
v -0.503101 0.672764 0.365807
v -0.550787 0.850654 -0.257050
v -0.121170 1.215441 -0.624019
vn 0.3271 -0.9331 -0.1493
vn -0.6357 -0.4893 0.5971
vn 0.6579 -0.7448 -0.1120
vn 0.6348 -0.7290 0.2562
vn -0.1326 -0.6404 0.7565
vn 0.6307 -0.4397 -0.6394
vn -0.2634 -0.7390 0.6201
vn -0.7173 -0.6277 0.3025
vn -0.9149 0.2399 0.3246
vn 0.1575 -0.6200 -0.7687
vn 0.9099 -0.3684 0.1909
vn -0.0238 -0.9414 0.3364
vn -0.9918 -0.0882 -0.0930
vn -0.4248 0.0881 -0.9010
vn 0.6123 -0.6735 -0.4141
vn -0.2079 0.9744 0.0861
vn 0.0628 0.8004 0.5961
vn -0.8639 0.3017 0.4034
vn -0.0775 0.2273 -0.9707
vn 0.6214 0.7375 0.2646
vn -0.2750 0.6168 0.7375
vn 0.4300 0.8989 -0.0845
vn 0.2897 0.5287 -0.7978
vn 0.0693 0.6657 0.7430
vn -0.7423 0.2479 -0.6226
vn -0.4890 0.5649 -0.6647
vn 0.4359 0.8737 0.2162
vn -0.9584 -0.2852 -0.0081
vn -0.9257 0.0757 -0.3705
vn 0.2292 0.9710 -0.0681
vn 0.2410 0.8559 0.4576
vn -0.3324 0.9345 0.1272
vn -0.3495 0.7804 0.5184
vn -0.3750 0.7850 0.4931
vn 0.6145 0.7288 0.3021
vn 0.9516 -0.2115 0.2232
vn 0.7400 -0.4500 -0.4999
vn 0.3588 0.0991 -0.9281
vn -0.0426 0.5959 -0.8019
vn -0.4335 0.0984 -0.8958
vn -0.5256 0.1655 -0.8345
vn -0.8344 0.4031 0.3759
vn -0.6794 0.7221 -0.1304
vn -0.6664 0.7381 -0.1051
vn -0.0225 0.3144 0.9490
vn -0.0601 0.3935 0.9174
vn -0.3040 0.1383 0.9426
vn 0.8076 0.2680 0.5254
vn 0.9750 0.1077 0.1943
vn 0.7904 -0.1018 0.6041
vn 0.0508 -0.1017 -0.9935
vn 0.0991 0.0103 -0.9950
vn -0.5835 0.2325 -0.7781
vn -0.8867 0.0348 -0.4610
vn -0.9305 -0.1637 -0.3277
vn -0.9458 -0.1814 -0.2694
vn -0.3385 0.2566 0.9053
vn -0.4117 -0.6725 0.6150
vn 0.1034 -0.7466 0.6572
vn 0.2816 -0.2036 0.9377
vn 0.2431 -0.5295 0.8128
vn 0.8579 -0.4343 0.2745
vn 0.8638 -0.3190 0.3900
vn 0.4709 -0.8546 0.2189
vn 0.4868 -0.8187 0.3045
vn 0.2045 -0.5381 -0.8177
vn 0.1699 -0.5614 -0.8099
vn 0.0905 -0.5576 -0.8252
vn -0.3915 -0.9064 0.1588
vn -0.4273 -0.8890 -0.1643
vn -0.7454 -0.6584 0.1043
vn -0.7163 -0.6292 0.3016
vn -0.0080 -0.7290 0.6845
vn -0.0198 -0.6561 0.7544
vn 0.8045 -0.3329 0.4919
vn 0.6054 0.5181 -0.6042
vn -0.2098 -0.6689 0.7131
vn -0.1909 -0.6611 0.7256
vn 0.0589 -0.7936 -0.6056
vn -0.2009 -0.8648 -0.4602
s 0
usemtl Material.001
f 1//1 14//1 13//1
f 2//2 14//2 16//2
f 1//3 13//3 18//3
f 1//4 18//4 20//4
f 1//5 20//5 17//5
f 2//6 16//6 23//6
f 3//7 15//7 25//7
f 4//8 19//8 27//8
f 5//9 21//9 29//9
f 6//10 22//10 31//10
f 2//11 23//11 26//11
f 3//12 25//12 28//12
f 4//13 27//13 30//13
f 5//14 29//14 32//14
f 6//15 31//15 24//15
f 7//16 33//16 38//16
f 8//17 34//17 40//17
f 9//18 35//18 41//18
f 10//19 36//19 42//19
f 11//20 37//20 39//20
f 39//21 42//21 12//21
f 39//22 37//22 42//22
f 37//23 10//23 42//23
f 42//24 41//24 12//24
f 42//25 36//25 41//25
f 36//26 9//26 41//26
f 41//27 40//27 12//27
f 41//28 35//28 40//28
f 35//29 8//29 40//29
f 40//30 38//30 12//30
f 40//31 34//31 38//31
f 34//32 7//32 38//32
f 38//33 39//33 12//33
f 38//34 33//34 39//34
f 33//35 11//35 39//35
f 24//36 37//36 11//36
f 24//37 31//37 37//37
f 31//38 10//38 37//38
f 32//39 36//39 10//39
f 32//40 29//40 36//40
f 29//41 9//41 36//41
f 30//42 35//42 9//42
f 30//43 27//43 35//43
f 27//44 8//44 35//44
f 28//45 34//45 8//45
f 28//46 25//46 34//46
f 25//47 7//47 34//47
f 26//48 33//48 7//48
f 26//49 23//49 33//49
f 23//50 11//50 33//50
f 31//51 32//51 10//51
f 31//52 22//52 32//52
f 22//53 5//53 32//53
f 29//54 30//54 9//54
f 29//55 21//55 30//55
f 21//56 4//56 30//56
f 27//57 28//57 8//57
f 27//58 19//58 28//58
f 19//59 3//59 28//59
f 25//60 26//60 7//60
f 25//61 15//61 26//61
f 15//62 2//62 26//62
f 23//63 24//63 11//63
f 23//64 16//64 24//64
f 16//65 6//65 24//65
f 17//66 22//66 6//66
f 17//67 20//67 22//67
f 20//68 5//68 22//68
f 20//69 21//69 5//69
f 20//70 18//70 21//70
f 18//71 4//71 21//71
f 18//72 19//72 4//72
f 18//73 13//73 19//73
f 13//74 3//74 19//74
f 16//75 17//75 6//75
f 16//76 14//76 17//76
f 14//77 1//77 17//77
f 13//78 15//78 3//78
f 13//79 14//79 15//79
f 14//80 2//80 15//80
