# Blender 3.6.5
# www.blender.org
mtllib saucer.mtl
o Icosphere
v 0.000000 -2.240000 0.000000
v 1.085411 -1.410829 0.788588
v -0.414582 -1.410830 1.275974
v -1.341639 -1.410823 0.000000
v -0.414582 -1.410830 -1.275974
v 1.085411 -1.410829 -0.788588
v 0.414582 -0.069170 1.275974
v -1.085411 -0.069171 0.788588
v -1.085411 -0.069171 -0.788588
v 0.414582 -0.069170 -1.275974
v 1.341639 -0.069177 0.000000
v 0.000000 0.760000 0.000000
v -0.243683 -2.015982 0.749993
v 0.637984 -2.015981 0.463517
v 0.394303 -1.528607 1.213518
v 1.275972 -1.528604 0.000000
v 0.637984 -2.015981 -0.463517
v -0.788595 -2.015977 0.000000
v -1.032284 -1.528604 0.749995
v -0.243683 -2.015982 -0.749993
v -1.032284 -1.528604 -0.749995
v 0.394303 -1.528607 -1.213518
v 1.426587 -0.740000 0.463519
v 1.426587 -0.740000 -0.463519
v 0.000000 -0.740000 1.500000
v 0.881678 -0.740000 1.213525
v -1.426587 -0.740000 0.463519
v -0.881678 -0.740000 1.213525
v -0.881678 -0.740000 -1.213525
v -1.426587 -0.740000 -0.463519
v 0.881678 -0.740000 -1.213525
v 0.000000 -0.740000 -1.500000
v 1.032284 0.048604 0.749995
v -0.394303 0.048607 1.213518
v -1.275972 0.048604 0.000000
v -0.394303 0.048607 -1.213518
v 1.032284 0.048604 -0.749995
v 0.243683 0.535982 0.749993
v 0.788595 0.535977 0.000000
v -0.637984 0.535981 0.463517
v -0.637984 0.535981 -0.463517
v 0.243683 0.535982 -0.749993
vn 0.1024 -0.9435 0.3151
vn 0.7002 -0.6617 0.2680
vn -0.2680 -0.9435 0.1947
vn -0.2680 -0.9435 -0.1947
vn 0.1024 -0.9435 -0.3151
vn 0.9050 -0.3304 0.2680
vn 0.0247 -0.3304 0.9435
vn -0.8897 -0.3304 0.3151
vn -0.5746 -0.3304 -0.7488
vn 0.5346 -0.3304 -0.7779
vn 0.8026 -0.1256 0.5831
vn -0.3066 -0.1256 0.9435
vn -0.9921 -0.1256 -0.0000
vn -0.3066 -0.1256 -0.9435
vn 0.8026 -0.1256 -0.5831
vn 0.4089 0.6617 0.6284
vn -0.4713 0.6617 0.5831
vn -0.7002 0.6617 -0.2680
vn 0.0385 0.6617 -0.7488
vn 0.7240 0.6617 -0.1947
vn 0.2680 0.9435 -0.1947
vn 0.4911 0.7947 -0.3568
vn 0.4089 0.6617 -0.6284
vn -0.1024 0.9435 -0.3151
vn -0.1876 0.7947 -0.5773
vn -0.4713 0.6617 -0.5831
vn -0.3313 0.9435 -0.0000
vn -0.6071 0.7947 -0.0000
vn -0.7002 0.6617 0.2680
vn -0.1024 0.9435 0.3151
vn -0.1876 0.7947 0.5773
vn 0.0385 0.6617 0.7488
vn 0.2680 0.9435 0.1947
vn 0.4911 0.7947 0.3568
vn 0.7240 0.6617 0.1947
vn 0.8897 0.3304 -0.3151
vn 0.7947 0.1876 -0.5773
vn 0.5746 0.3304 -0.7488
vn -0.0247 0.3304 -0.9435
vn -0.3035 0.1876 -0.9342
vn -0.5346 0.3304 -0.7779
vn -0.9050 0.3304 -0.2680
vn -0.9822 0.1876 -0.0000
vn -0.9050 0.3304 0.2680
vn -0.5346 0.3304 0.7779
vn -0.3035 0.1876 0.9342
vn -0.0247 0.3304 0.9435
vn 0.5746 0.3304 0.7488
vn 0.7947 0.1876 0.5773
vn 0.8897 0.3304 0.3151
vn 0.3066 0.1256 -0.9435
vn 0.3035 -0.1876 -0.9342
vn 0.0247 -0.3304 -0.9435
vn -0.8026 0.1256 -0.5831
vn -0.7947 -0.1876 -0.5773
vn -0.8897 -0.3304 -0.3151
vn -0.8026 0.1256 0.5831
vn -0.7947 -0.1876 0.5773
vn -0.5746 -0.3304 0.7488
vn 0.3066 0.1256 0.9435
vn 0.3035 -0.1876 0.9342
vn 0.5346 -0.3304 0.7779
vn 0.9921 0.1256 -0.0000
vn 0.9822 -0.1876 -0.0000
vn 0.9050 -0.3304 -0.2680
vn 0.4713 -0.6617 -0.5831
vn 0.1876 -0.7947 -0.5773
vn -0.0385 -0.6617 -0.7488
vn -0.4089 -0.6617 -0.6284
vn -0.4911 -0.7947 -0.3568
vn -0.7240 -0.6617 -0.1947
vn -0.7240 -0.6617 0.1947
vn -0.4911 -0.7947 0.3568
vn -0.4089 -0.6617 0.6284
vn 0.7002 -0.6617 -0.2680
vn 0.6071 -0.7947 -0.0000
vn 0.3313 -0.9435 -0.0000
vn -0.0385 -0.6617 0.7488
vn 0.1876 -0.7947 0.5773
vn 0.4713 -0.6617 0.5831
s 0
usemtl Material.003
f 1//1 14//1 13//1
f 2//2 14//2 16//2
f 1//3 13//3 18//3
f 1//4 18//4 20//4
f 1//5 20//5 17//5
f 2//6 16//6 23//6
f 3//7 15//7 25//7
f 4//8 19//8 27//8
f 5//9 21//9 29//9
f 6//10 22//10 31//10
f 2//11 23//11 26//11
f 3//12 25//12 28//12
f 4//13 27//13 30//13
f 5//14 29//14 32//14
f 6//15 31//15 24//15
f 7//16 33//16 38//16
f 8//17 34//17 40//17
f 9//18 35//18 41//18
f 10//19 36//19 42//19
f 11//20 37//20 39//20
f 39//21 42//21 12//21
f 39//22 37//22 42//22
f 37//23 10//23 42//23
f 42//24 41//24 12//24
f 42//25 36//25 41//25
f 36//26 9//26 41//26
f 41//27 40//27 12//27
f 41//28 35//28 40//28
f 35//29 8//29 40//29
f 40//30 38//30 12//30
f 40//31 34//31 38//31
f 34//32 7//32 38//32
f 38//33 39//33 12//33
f 38//34 33//34 39//34
f 33//35 11//35 39//35
f 24//36 37//36 11//36
f 24//37 31//37 37//37
f 31//38 10//38 37//38
f 32//39 36//39 10//39
f 32//40 29//40 36//40
f 29//41 9//41 36//41
f 30//42 35//42 9//42
f 30//43 27//43 35//43
f 27//44 8//44 35//44
f 28//45 34//45 8//45
f 28//46 25//46 34//46
f 25//47 7//47 34//47
f 26//48 33//48 7//48
f 26//49 23//49 33//49
f 23//50 11//50 33//50
f 31//51 32//51 10//51
f 31//52 22//52 32//52
f 22//53 5//53 32//53
f 29//54 30//54 9//54
f 29//55 21//55 30//55
f 21//56 4//56 30//56
f 27//57 28//57 8//57
f 27//58 19//58 28//58
f 19//59 3//59 28//59
f 25//60 26//60 7//60
f 25//61 15//61 26//61
f 15//62 2//62 26//62
f 23//63 24//63 11//63
f 23//64 16//64 24//64
f 16//65 6//65 24//65
f 17//66 22//66 6//66
f 17//67 20//67 22//67
f 20//68 5//68 22//68
f 20//69 21//69 5//69
f 20//70 18//70 21//70
f 18//71 4//71 21//71
f 18//72 19//72 4//72
f 18//73 13//73 19//73
f 13//74 3//74 19//74
f 16//75 17//75 6//75
f 16//76 14//76 17//76
f 14//77 1//77 17//77
f 13//78 15//78 3//78
f 13//79 14//79 15//79
f 14//80 2//80 15//80
o Icosphere.001
v -0.084773 -0.875929 0.044446
v 2.209627 -0.378486 1.711405
v -0.961139 -0.378486 2.741668
v -2.920803 -0.378483 0.044446
v -0.961139 -0.378486 -2.652776
v 2.209627 -0.378486 -1.622514
v 0.791592 0.426412 2.741668
v -2.379174 0.426412 1.711405
v -2.379174 0.426412 -1.622514
v 0.791592 0.426412 -2.652776
v 2.751256 0.426408 0.044446
v -0.084773 0.923854 0.044446
v -0.599884 -0.741534 1.629821
v 1.263832 -0.741534 1.024253
v 0.748726 -0.449144 2.609645
v 2.612444 -0.449142 0.044446
v 1.263832 -0.741534 -0.935362
v -1.751747 -0.741531 0.044446
v -2.266871 -0.449143 1.629827
v -0.599884 -0.741534 -1.540930
v -2.266871 -0.449143 -1.540935
v 0.748726 -0.449144 -2.520753
v 2.930823 0.023963 1.024257
v 2.930823 0.023963 -0.935366
v -0.084773 0.023963 3.215227
v 1.778966 0.023963 2.609661
v -3.100370 0.023963 1.024257
v -1.948513 0.023963 2.609661
v -1.948513 0.023963 -2.520769
v -3.100370 0.023963 -0.935366
v 1.778966 0.023963 -2.520769
v -0.084773 0.023963 -3.126335
v 2.097324 0.497068 1.629827
v -0.918273 0.497070 2.609645
v -2.781991 0.497068 0.044446
v -0.918273 0.497070 -2.520753
v 2.097324 0.497068 -1.540935
v 0.430338 0.789459 1.629821
v 1.582200 0.789457 0.044446
v -1.433378 0.789459 1.024253
v -1.433378 0.789459 -0.935362
v 0.430338 0.789459 -1.540930
vn 0.0306 -0.9951 0.0943
vn 0.2859 -0.9520 0.1094
vn -0.0802 -0.9951 0.0583
vn -0.0802 -0.9951 -0.0583
vn 0.0306 -0.9951 -0.0943
vn 0.6039 -0.7768 0.1788
vn 0.0165 -0.7768 0.6296
vn -0.5937 -0.7768 0.2102
vn -0.3834 -0.7768 -0.4996
vn 0.3567 -0.7768 -0.5190
vn 0.7388 -0.4075 0.5368
vn -0.2822 -0.4075 0.8685
vn -0.9132 -0.4075 -0.0000
vn -0.2822 -0.4075 -0.8685
vn 0.7388 -0.4075 -0.5368
vn 0.1670 0.9520 0.2566
vn -0.1924 0.9520 0.2381
vn -0.2859 0.9520 -0.1094
vn 0.0157 0.9520 -0.3057
vn 0.2956 0.9520 -0.0795
vn 0.0802 0.9951 -0.0583
vn 0.1714 0.9773 -0.1245
vn 0.1670 0.9520 -0.2566
vn -0.0306 0.9951 -0.0943
vn -0.0655 0.9773 -0.2015
vn -0.1924 0.9520 -0.2381
vn -0.0992 0.9951 -0.0000
vn -0.2119 0.9773 -0.0000
vn -0.2859 0.9520 0.1094
vn -0.0306 0.9951 0.0943
vn -0.0655 0.9773 0.2015
vn 0.0157 0.9520 0.3057
vn 0.0802 0.9951 0.0583
vn 0.1714 0.9773 0.1245
vn 0.2956 0.9520 0.0795
vn 0.5937 0.7768 -0.2102
vn 0.6712 0.5583 -0.4876
vn 0.3834 0.7768 -0.4996
vn -0.0165 0.7768 -0.6296
vn -0.2564 0.5583 -0.7890
vn -0.3567 0.7768 -0.5190
vn -0.6039 0.7768 -0.1788
vn -0.8296 0.5583 -0.0000
vn -0.6039 0.7768 0.1788
vn -0.3567 0.7768 0.5190
vn -0.2564 0.5583 0.7890
vn -0.0165 0.7768 0.6296
vn 0.3834 0.7768 0.4996
vn 0.6712 0.5583 0.4876
vn 0.5937 0.7768 0.2102
vn 0.2822 0.4075 -0.8685
vn 0.2564 -0.5583 -0.7890
vn 0.0165 -0.7768 -0.6296
vn -0.7388 0.4075 -0.5368
vn -0.6712 -0.5583 -0.4876
vn -0.5937 -0.7768 -0.2102
vn -0.7388 0.4075 0.5368
vn -0.6712 -0.5583 0.4876
vn -0.3834 -0.7768 0.4996
vn 0.2822 0.4075 0.8685
vn 0.2564 -0.5583 0.7890
vn 0.3567 -0.7768 0.5190
vn 0.9132 0.4075 -0.0000
vn 0.8296 -0.5583 -0.0000
vn 0.6039 -0.7768 -0.1788
vn 0.1924 -0.9520 -0.2381
vn 0.0655 -0.9773 -0.2015
vn -0.0157 -0.9520 -0.3057
vn -0.1670 -0.9520 -0.2566
vn -0.1714 -0.9773 -0.1245
vn -0.2956 -0.9520 -0.0795
vn -0.2956 -0.9520 0.0795
vn -0.1714 -0.9773 0.1245
vn -0.1670 -0.9520 0.2566
vn 0.2859 -0.9520 -0.1094
vn 0.2119 -0.9773 -0.0000
vn 0.0992 -0.9951 -0.0000
vn -0.0157 -0.9520 0.3057
vn 0.0655 -0.9773 0.2015
vn 0.1924 -0.9520 0.2381
s 0
usemtl Material.002
f 43//81 56//81 55//81
f 44//82 56//82 58//82
f 43//83 55//83 60//83
f 43//84 60//84 62//84
f 43//85 62//85 59//85
f 44//86 58//86 65//86
f 45//87 57//87 67//87
f 46//88 61//88 69//88
f 47//89 63//89 71//89
f 48//90 64//90 73//90
f 44//91 65//91 68//91
f 45//92 67//92 70//92
f 46//93 69//93 72//93
f 47//94 71//94 74//94
f 48//95 73//95 66//95
f 49//96 75//96 80//96
f 50//97 76//97 82//97
f 51//98 77//98 83//98
f 52//99 78//99 84//99
f 53//100 79//100 81//100
f 81//101 84//101 54//101
f 81//102 79//102 84//102
f 79//103 52//103 84//103
f 84//104 83//104 54//104
f 84//105 78//105 83//105
f 78//106 51//106 83//106
f 83//107 82//107 54//107
f 83//108 77//108 82//108
f 77//109 50//109 82//109
f 82//110 80//110 54//110
f 82//111 76//111 80//111
f 76//112 49//112 80//112
f 80//113 81//113 54//113
f 80//114 75//114 81//114
f 75//115 53//115 81//115
f 66//116 79//116 53//116
f 66//117 73//117 79//117
f 73//118 52//118 79//118
f 74//119 78//119 52//119
f 74//120 71//120 78//120
f 71//121 51//121 78//121
f 72//122 77//122 51//122
f 72//123 69//123 77//123
f 69//124 50//124 77//124
f 70//125 76//125 50//125
f 70//126 67//126 76//126
f 67//127 49//127 76//127
f 68//128 75//128 49//128
f 68//129 65//129 75//129
f 65//130 53//130 75//130
f 73//131 74//131 52//131
f 73//132 64//132 74//132
f 64//133 47//133 74//133
f 71//134 72//134 51//134
f 71//135 63//135 72//135
f 63//136 46//136 72//136
f 69//137 70//137 50//137
f 69//138 61//138 70//138
f 61//139 45//139 70//139
f 67//140 68//140 49//140
f 67//141 57//141 68//141
f 57//142 44//142 68//142
f 65//143 66//143 53//143
f 65//144 58//144 66//144
f 58//145 48//145 66//145
f 59//146 64//146 48//146
f 59//147 62//147 64//147
f 62//148 47//148 64//148
f 62//149 63//149 47//149
f 62//150 60//150 63//150
f 60//151 46//151 63//151
f 60//152 61//152 46//152
f 60//153 55//153 61//153
f 55//154 45//154 61//154
f 58//155 59//155 48//155
f 58//156 56//156 59//156
f 56//157 43//157 59//157
f 55//158 57//158 45//158
f 55//159 56//159 57//159
f 56//160 44//160 57//160
