# Blender 3.6.5
# www.blender.org
mtllib spaceship.mtl
o Cube
v -0.264680 -2.428581 0.017969
v -0.909126 -1.386925 0.003328
v -0.264680 -2.428581 -0.102046
v -0.264680 -1.828581 -0.102046
v -0.003601 -2.470546 -0.285383
v -0.003601 -1.870546 -0.285383
v -0.003601 -2.470546 0.314617
v -0.003601 -1.428890 0.299977
v -1.255224 -1.986925 -0.116687
v -1.255224 -1.986925 0.003328
v -1.255224 -1.386925 0.003328
v -1.255224 -1.386925 -0.116687
v -1.383446 -1.986925 -0.116687
v -1.383446 -1.986925 0.003328
v -1.383446 -1.386925 0.003328
v -1.383446 -1.386925 -0.116687
v -1.243204 -1.381246 -0.834170
v -1.243204 -1.981246 -0.834170
v -1.360882 -1.381246 -0.834170
v -1.360882 -1.981246 -0.834170
v -1.255224 -1.986925 0.730897
v -1.255224 -1.386925 0.730897
v -1.383446 -1.986925 0.730897
v -1.383446 -1.386925 0.730897
v -0.901647 -1.606079 -1.704959
v -0.901647 -1.797210 -1.704959
v -0.922306 -1.606079 -1.704959
v -0.922306 -1.797210 -1.704959
v -0.966227 -1.824370 1.559753
v -0.966227 -1.572404 1.559753
v -0.990522 -1.824370 1.559753
v -0.990522 -1.572404 1.559753
v -0.872209 -0.590324 0.003328
v -0.872209 -0.590324 -0.116687
v -0.003601 -0.632289 0.299977
v -0.003601 -0.632289 -0.300023
v -0.129239 1.753568 -0.022245
v -0.129239 1.753568 -0.045380
v -0.003601 1.733419 0.034940
v -0.003601 1.733419 -0.080721
v -1.285057 -0.784697 0.029299
v -1.285057 -0.784697 -0.090716
v -1.349299 -0.784697 0.029299
v -1.349299 -0.784697 -0.090716
v -1.337994 -0.779018 -0.808199
v -1.279034 -0.779018 -0.808199
v -1.285057 -0.784697 0.756868
v -1.349299 -0.784697 0.756868
v -0.922306 -1.003851 -1.678988
v -0.901647 -1.003851 -1.678988
v -0.966227 -0.970176 1.585724
v -0.990522 -0.970176 1.585724
v -1.293778 -2.435236 -0.136020
v -1.293778 -2.435236 -0.016005
v -1.339316 -2.435236 -0.136020
v -1.339316 -2.435236 -0.016005
v -1.289510 -2.429558 -0.853503
v -1.331303 -2.429558 -0.853503
v -1.339316 -2.435236 0.711563
v -1.293778 -2.435236 0.711563
v -0.901647 -2.245522 -1.724293
v -0.922306 -2.245522 -1.724293
v -0.990522 -2.272682 1.540420
v -0.966227 -2.272682 1.540420
v -0.523629 -2.316263 -0.080837
v -0.523629 -2.219370 -0.080837
v -0.520146 -2.316263 -0.045476
v -0.520146 -2.219370 -0.045476
v -0.879177 -2.219370 -0.080837
v -0.667712 -1.953721 -0.059431
v -0.665637 -1.953721 -0.052590
v -0.664936 -1.953721 -0.045476
v -0.665637 -1.953721 -0.038362
v -0.671082 -1.953721 -0.025216
v -0.675617 -1.953721 -0.019690
v -0.681143 -1.953721 -0.015155
v -0.687448 -1.953721 -0.011785
v -0.694289 -1.953721 -0.009710
v -0.701403 -1.953721 -0.009009
v -0.708517 -1.953721 -0.009710
v -0.715358 -1.953721 -0.011785
v -0.721663 -1.953721 -0.015155
v -0.727189 -1.953721 -0.019690
v -0.731724 -1.953721 -0.025216
v -0.735094 -1.953721 -0.031521
v -0.737169 -1.953721 -0.038362
v -0.737870 -1.953721 -0.045476
v -0.737169 -1.953721 -0.052590
v -0.735094 -1.953721 -0.059431
v 0.257479 -2.428581 0.017969
v 0.901925 -1.386925 0.003328
v 0.257479 -2.428581 -0.102046
v 0.257479 -1.828581 -0.102046
v 1.248023 -1.986925 -0.116687
v 1.248023 -1.986925 0.003328
v 1.248023 -1.386925 0.003328
v 1.248023 -1.386925 -0.116687
v 1.376245 -1.986925 -0.116687
v 1.376245 -1.986925 0.003328
v 1.376245 -1.386925 0.003328
v 1.376245 -1.386925 -0.116687
v 1.236003 -1.381246 -0.834170
v 1.236003 -1.981246 -0.834170
v 1.353681 -1.381246 -0.834170
v 1.353681 -1.981246 -0.834170
v 1.248023 -1.986925 0.730897
v 1.248023 -1.386925 0.730897
v 1.376245 -1.986925 0.730897
v 1.376245 -1.386925 0.730897
v 0.894446 -1.606079 -1.704959
v 0.894446 -1.797210 -1.704959
v 0.915105 -1.606079 -1.704959
v 0.915105 -1.797210 -1.704959
v 0.959026 -1.824370 1.559753
v 0.959026 -1.572404 1.559753
v 0.983321 -1.824370 1.559753
v 0.983321 -1.572404 1.559753
v 0.865008 -0.590324 0.003328
v 0.865008 -0.590324 -0.116687
v 0.122038 1.753568 -0.022245
v 0.122038 1.753568 -0.045380
v 1.277856 -0.784697 0.029299
v 1.277856 -0.784697 -0.090716
v 1.342098 -0.784697 0.029299
v 1.342098 -0.784697 -0.090716
v 1.330793 -0.779018 -0.808199
v 1.271833 -0.779018 -0.808199
v 1.277856 -0.784697 0.756868
v 1.342098 -0.784697 0.756868
v 0.915105 -1.003851 -1.678988
v 0.894446 -1.003851 -1.678988
v 0.959026 -0.970176 1.585724
v 0.983321 -0.970176 1.585724
v 1.286577 -2.435236 -0.136020
v 1.286577 -2.435236 -0.016005
v 1.332115 -2.435236 -0.136020
v 1.332115 -2.435236 -0.016005
v 1.282309 -2.429558 -0.853503
v 1.324101 -2.429558 -0.853503
v 1.332115 -2.435236 0.711563
v 1.286577 -2.435236 0.711563
v 0.894446 -2.245522 -1.724293
v 0.915105 -2.245522 -1.724293
v 0.983321 -2.272682 1.540420
v 0.959026 -2.272682 1.540420
v 0.516428 -2.316263 -0.080837
v 0.516428 -2.219370 -0.080837
v 0.512945 -2.316263 -0.045476
v 0.512945 -2.219370 -0.045476
v 0.871976 -2.219370 -0.080837
v 0.660511 -1.953721 -0.059431
v 0.658436 -1.953721 -0.052590
v 0.657735 -1.953721 -0.045476
v 0.658436 -1.953721 -0.038362
v 0.663881 -1.953721 -0.025216
v 0.668416 -1.953721 -0.019690
v 0.673942 -1.953721 -0.015155
v 0.680247 -1.953721 -0.011785
v 0.687088 -1.953721 -0.009710
v 0.694202 -1.953721 -0.009009
v 0.701316 -1.953721 -0.009710
v 0.708157 -1.953721 -0.011785
v 0.714462 -1.953721 -0.015155
v 0.719988 -1.953721 -0.019690
v 0.724523 -1.953721 -0.025216
v 0.727893 -1.953721 -0.031521
v 0.729968 -1.953721 -0.038362
v 0.730669 -1.953721 -0.045476
v 0.729968 -1.953721 -0.052590
v 0.727893 -1.953721 -0.059431
vn -0.0000 1.0000 -0.0000
vn -0.7500 0.0093 0.6614
vn -0.5757 -0.0097 -0.8176
vn -0.1587 -0.9873 -0.0000
vn -0.5747 -0.0000 -0.8184
vn 0.9999 -0.0000 0.0167
vn -0.4072 -0.9133 -0.0000
vn 0.0148 -0.0000 -0.9999
vn -0.0118 0.0068 0.9999
vn -1.0000 -0.0000 -0.0000
vn -0.9143 0.0344 0.4035
vn -0.8909 0.0196 -0.4538
vn 0.9963 -0.0857 -0.0000
vn -0.0000 0.0431 -0.9991
vn 0.9323 -0.0648 -0.3557
vn -0.0000 -0.0431 0.9991
vn -0.9995 -0.0000 -0.0314
vn 0.9320 -0.0156 0.3622
vn 1.0000 -0.0000 -0.0000
vn 0.9947 -0.1030 0.0051
vn -0.0000 -0.0000 -1.0000
vn 0.9309 -0.0000 0.3652
vn -0.8931 -0.0000 -0.4498
vn -0.0000 -0.0000 1.0000
vn -0.9036 -0.0000 0.4284
vn -0.9984 0.0566 -0.0000
vn 0.9442 -0.0000 -0.3292
vn -0.3164 0.1106 0.9422
vn -0.2481 -0.1331 -0.9596
vn -0.3225 0.0149 0.9464
vn 0.1584 0.9874 -0.0000
vn -0.2564 0.0892 -0.9624
vn -0.9533 0.3022 -0.0000
vn -0.0000 1.0000 0.0079
vn -0.0000 0.9682 -0.2500
vn -0.0000 0.9759 0.2184
vn 0.9988 0.0495 -0.0000
vn -0.9987 0.0393 -0.0311
vn 0.9451 0.0141 -0.3264
vn 0.9988 0.0491 0.0088
vn 0.9204 0.0380 0.3891
vn -0.0000 -1.0000 -0.0000
vn -0.0000 -0.9784 -0.2068
vn -0.0000 -1.0000 -0.0079
vn -0.0000 -0.9813 0.1925
vn -0.9952 -0.0980 -0.0000
vn -0.9020 -0.0186 0.4313
vn -0.9948 -0.0965 -0.0320
vn -0.9010 -0.0408 -0.4318
vn 0.9952 -0.0000 -0.0980
vn 0.8748 0.4768 -0.0862
vn 0.2680 0.5754 -0.7727
vn -0.3137 -0.1810 0.9321
vn -0.2105 -0.1147 -0.9708
vn 0.9999 -0.0000 0.0168
vn -0.9050 -0.0183 0.4249
vn -0.8958 0.0531 -0.4413
vn 0.9433 0.0143 -0.3317
vn 0.9163 -0.1112 0.3846
vn 0.9961 -0.0864 0.0160
vn -0.3985 0.1021 0.9115
vn -0.9989 0.0463 -0.0000
vn -0.3113 -0.0000 0.9503
vn 0.1583 0.9874 -0.0000
vn -0.2013 0.0935 -0.9751
vn -0.9982 0.0573 -0.0153
vn 0.9361 0.0613 -0.3464
vn 0.9981 0.0586 0.0172
vn 0.9294 -0.0159 0.3687
vn -0.9088 -0.1069 0.4034
vn -0.9978 -0.0653 -0.0117
vn -0.8946 0.0193 -0.4465
vn 0.8748 0.4768 0.0862
vn 0.7500 0.0093 0.6614
vn 0.5757 -0.0097 -0.8176
vn 0.1587 -0.9873 -0.0000
vn 0.5747 -0.0000 -0.8184
vn -0.9999 -0.0000 0.0167
vn 0.4072 -0.9133 -0.0000
vn -0.0148 -0.0000 -0.9999
vn 0.0118 0.0068 0.9999
vn 0.9143 0.0344 0.4035
vn 0.8909 0.0196 -0.4538
vn -0.9963 -0.0857 -0.0000
vn -0.9323 -0.0648 -0.3557
vn 0.9995 -0.0000 -0.0314
vn -0.9320 -0.0156 0.3622
vn -0.9947 -0.1030 0.0051
vn -0.9309 -0.0000 0.3652
vn 0.8931 -0.0000 -0.4498
vn 0.9036 -0.0000 0.4284
vn 0.9984 0.0566 -0.0000
vn -0.9442 -0.0000 -0.3292
vn 0.3164 0.1106 0.9422
vn 0.2481 -0.1331 -0.9596
vn 0.3225 0.0149 0.9464
vn -0.1584 0.9874 -0.0000
vn 0.2564 0.0892 -0.9624
vn 0.9533 0.3022 -0.0000
vn -0.9988 0.0495 -0.0000
vn 0.9987 0.0393 -0.0311
vn -0.9451 0.0141 -0.3264
vn -0.9988 0.0491 0.0088
vn -0.9204 0.0380 0.3891
vn 0.9952 -0.0980 -0.0000
vn 0.9020 -0.0186 0.4313
vn 0.9948 -0.0965 -0.0320
vn 0.9010 -0.0408 -0.4318
vn -0.9952 -0.0000 -0.0980
vn -0.8748 0.4768 -0.0862
vn -0.2680 0.5754 -0.7727
vn 0.3137 -0.1810 0.9321
vn 0.2105 -0.1147 -0.9708
vn -0.9999 -0.0000 0.0168
vn 0.9050 -0.0183 0.4249
vn 0.8958 0.0531 -0.4413
vn -0.9433 0.0143 -0.3317
vn -0.9163 -0.1112 0.3846
vn -0.9961 -0.0864 0.0160
vn 0.3985 0.1021 0.9115
vn 0.9989 0.0463 -0.0000
vn 0.3113 -0.0000 0.9503
vn -0.1583 0.9874 -0.0000
vn 0.2013 0.0935 -0.9751
vn 0.9982 0.0573 -0.0153
vn -0.9361 0.0613 -0.3464
vn -0.9981 0.0586 0.0172
vn -0.9294 -0.0159 0.3687
vn 0.9088 -0.1069 0.4034
vn 0.9978 -0.0653 -0.0117
vn 0.8946 0.0193 -0.4465
vn -0.8748 0.4768 0.0862
s 0
usemtl Material.001
f 2//1 12//1 11//1
f 8//2 1//2 7//2
f 4//3 36//3 6//3
f 5//4 1//4 3//4
f 3//5 6//5 5//5
f 12//6 18//6 17//6
f 3//7 10//7 9//7
f 4//8 9//8 12//8
f 2//9 10//9 1//9
f 15//10 13//10 14//10
f 24//11 52//11 48//11
f 19//12 49//12 27//12
f 9//13 54//13 53//13
f 26//14 62//14 28//14
f 21//15 64//15 60//15
f 30//16 52//16 32//16
f 16//17 20//17 13//17
f 18//18 61//18 26//18
f 11//19 21//19 10//19
f 18//20 53//20 57//20
f 14//10 24//10 15//10
f 26//21 27//21 25//21
f 18//22 25//22 17//22
f 27//14 50//14 25//14
f 20//23 27//23 28//23
f 30//24 31//24 29//24
f 23//25 32//25 24//25
f 24//26 43//26 15//26
f 21//27 30//27 29//27
f 35//28 37//28 33//28
f 2//29 34//29 4//29
f 2//30 35//30 33//30
f 40//31 37//31 39//31
f 36//32 38//32 40//32
f 33//33 38//33 34//33
f 43//1 47//1 41//1
f 42//1 43//1 41//1
f 42//34 45//34 44//34
f 46//35 49//35 45//35
f 47//36 52//36 51//36
f 22//37 41//37 47//37
f 11//37 42//37 41//37
f 16//38 45//38 19//38
f 22//39 51//39 30//39
f 15//26 44//26 16//26
f 12//40 46//40 42//40
f 17//41 50//41 46//41
f 54//42 55//42 53//42
f 57//43 62//43 61//43
f 53//44 58//44 57//44
f 60//45 63//45 59//45
f 54//42 59//42 56//42
f 14//46 59//46 23//46
f 23//47 63//47 31//47
f 13//46 56//46 14//46
f 20//48 55//48 13//48
f 20//49 62//49 58//49
f 31//16 64//16 29//16
f 10//13 60//13 54//13
f 66//50 67//50 65//50
f 68//51 71//51 72//51
f 2//52 4//52 12//52
f 8//53 2//53 1//53
f 4//54 34//54 36//54
f 5//4 7//4 1//4
f 3//5 4//5 6//5
f 12//55 9//55 18//55
f 3//7 1//7 10//7
f 4//8 3//8 9//8
f 2//24 11//24 10//24
f 15//10 16//10 13//10
f 24//56 32//56 52//56
f 19//57 45//57 49//57
f 9//13 10//13 54//13
f 26//14 61//14 62//14
f 21//58 29//58 64//58
f 30//16 51//16 52//16
f 16//17 19//17 20//17
f 18//59 57//59 61//59
f 11//19 22//19 21//19
f 18//60 9//60 53//60
f 14//10 23//10 24//10
f 26//21 28//21 27//21
f 18//22 26//22 25//22
f 27//14 49//14 50//14
f 20//23 19//23 27//23
f 30//24 32//24 31//24
f 23//25 31//25 32//25
f 24//26 48//26 43//26
f 21//27 22//27 30//27
f 35//61 39//61 37//61
f 2//62 33//62 34//62
f 2//63 8//63 35//63
f 40//64 38//64 37//64
f 36//65 34//65 38//65
f 33//33 37//33 38//33
f 43//1 48//1 47//1
f 42//1 44//1 43//1
f 42//34 46//34 45//34
f 46//35 50//35 49//35
f 47//36 48//36 52//36
f 22//37 11//37 41//37
f 11//37 12//37 42//37
f 16//66 44//66 45//66
f 22//67 47//67 51//67
f 15//26 43//26 44//26
f 12//68 17//68 46//68
f 17//69 25//69 50//69
f 54//42 56//42 55//42
f 57//43 58//43 62//43
f 53//44 55//44 58//44
f 60//45 64//45 63//45
f 54//42 60//42 59//42
f 14//46 56//46 59//46
f 23//70 59//70 63//70
f 13//46 55//46 56//46
f 20//71 58//71 55//71
f 20//72 28//72 62//72
f 31//16 63//16 64//16
f 10//13 21//13 60//13
f 66//50 68//50 67//50
f 89//1 88//1 87//1
f 87//1 86//1 85//1
f 85//1 84//1 83//1
f 83//1 82//1 81//1
f 81//1 80//1 77//1
f 80//1 79//1 77//1
f 79//1 78//1 77//1
f 89//1 87//1 81//1
f 87//1 85//1 81//1
f 85//1 83//1 81//1
f 68//51 66//51 71//51
f 68//73 72//73 73//73
f 91//1 96//1 97//1
f 8//74 7//74 90//74
f 93//75 6//75 36//75
f 5//76 92//76 90//76
f 92//77 5//77 6//77
f 97//78 102//78 103//78
f 92//79 94//79 95//79
f 93//80 97//80 94//80
f 91//81 90//81 95//81
f 100//19 99//19 98//19
f 109//82 129//82 133//82
f 104//83 112//83 130//83
f 94//84 134//84 135//84
f 111//14 113//14 143//14
f 106//85 141//85 145//85
f 115//16 117//16 133//16
f 101//86 98//86 105//86
f 103//87 111//87 142//87
f 96//10 95//10 106//10
f 103//88 138//88 134//88
f 99//19 100//19 109//19
f 111//21 110//21 112//21
f 103//89 102//89 110//89
f 112//14 110//14 131//14
f 105//90 113//90 112//90
f 115//24 114//24 116//24
f 108//91 109//91 117//91
f 109//92 100//92 124//92
f 106//93 114//93 115//93
f 35//94 118//94 120//94
f 91//95 93//95 119//95
f 91//96 118//96 35//96
f 40//97 39//97 120//97
f 36//98 40//98 121//98
f 118//99 119//99 121//99
f 124//1 122//1 128//1
f 123//1 122//1 124//1
f 123//34 125//34 126//34
f 127//35 126//35 130//35
f 128//36 132//36 133//36
f 107//100 128//100 122//100
f 96//100 122//100 123//100
f 101//101 104//101 126//101
f 107//102 115//102 132//102
f 100//92 101//92 125//92
f 97//103 123//103 127//103
f 102//104 127//104 131//104
f 135//42 134//42 136//42
f 138//43 142//43 143//43
f 134//44 138//44 139//44
f 141//45 140//45 144//45
f 135//42 137//42 140//42
f 99//105 108//105 140//105
f 108//106 116//106 144//106
f 98//105 99//105 137//105
f 105//107 98//107 136//107
f 105//108 139//108 143//108
f 116//16 114//16 145//16
f 95//84 135//84 141//84
f 147//109 146//109 148//109
f 149//110 153//110 152//110
f 91//111 97//111 93//111
f 8//112 90//112 91//112
f 93//113 36//113 119//113
f 5//76 90//76 7//76
f 92//77 6//77 93//77
f 97//114 103//114 94//114
f 92//79 95//79 90//79
f 93//80 94//80 92//80
f 91//24 95//24 96//24
f 100//19 98//19 101//19
f 109//115 133//115 117//115
f 104//116 130//116 126//116
f 94//84 135//84 95//84
f 111//14 143//14 142//14
f 106//117 145//117 114//117
f 115//16 133//16 132//16
f 101//86 105//86 104//86
f 103//118 142//118 138//118
f 96//10 106//10 107//10
f 103//119 134//119 94//119
f 99//19 109//19 108//19
f 111//21 112//21 113//21
f 103//89 110//89 111//89
f 112//14 131//14 130//14
f 105//90 112//90 104//90
f 115//24 116//24 117//24
f 108//91 117//91 116//91
f 109//92 124//92 129//92
f 106//93 115//93 107//93
f 35//120 120//120 39//120
f 91//121 119//121 118//121
f 91//122 35//122 8//122
f 40//123 120//123 121//123
f 36//124 121//124 119//124
f 118//99 121//99 120//99
f 124//1 128//1 129//1
f 123//1 124//1 125//1
f 123//34 126//34 127//34
f 127//35 130//35 131//35
f 128//36 133//36 129//36
f 107//100 122//100 96//100
f 96//100 123//100 97//100
f 101//125 126//125 125//125
f 107//126 132//126 128//126
f 100//92 125//92 124//92
f 97//127 127//127 102//127
f 102//128 131//128 110//128
f 135//42 136//42 137//42
f 138//43 143//43 139//43
f 134//44 139//44 136//44
f 141//45 144//45 145//45
f 135//42 140//42 141//42
f 99//105 140//105 137//105
f 108//129 144//129 140//129
f 98//105 137//105 136//105
f 105//130 136//130 139//130
f 105//131 143//131 113//131
f 116//16 145//16 144//16
f 95//84 141//84 106//84
f 147//109 148//109 149//109
f 170//1 168//1 169//1
f 168//1 166//1 167//1
f 166//1 164//1 165//1
f 164//1 162//1 163//1
f 162//1 158//1 161//1
f 161//1 158//1 160//1
f 160//1 158//1 159//1
f 170//1 162//1 168//1
f 168//1 162//1 166//1
f 166//1 162//1 164//1
f 149//110 152//110 147//110
f 149//132 154//132 153//132
l 71 70
l 75 74
l 76 75
l 77 76
l 88 69
l 152 151
l 156 155
l 157 156
l 158 157
l 169 150
o Cube.001
v -0.307798 -1.686108 0.500188
v -0.307798 -1.086108 0.500188
v -0.307798 -1.686108 -0.099812
v -0.307798 -1.086108 -0.099812
v 0.292202 -1.686108 0.500188
v 0.292202 -1.086108 0.500188
v 0.292202 -1.686108 -0.099812
v 0.292202 -1.086108 -0.099812
v -0.089770 -0.449033 0.282161
v -0.089770 -0.449033 0.118215
v 0.074175 -0.449033 0.118215
v 0.074175 -0.449033 0.282161
v -0.144046 -1.843240 -0.124798
v -0.144046 -1.843240 0.182080
v 0.162833 -1.843240 -0.124798
v 0.162833 -1.843240 0.182080
vn -1.0000 -0.0000 -0.0000
vn -0.0000 -0.0000 -1.0000
vn 1.0000 -0.0000 -0.0000
vn -0.0000 -0.0000 1.0000
vn -0.0000 -0.8966 0.4429
vn 0.9461 0.3238 -0.0000
vn -0.0000 1.0000 -0.0000
vn -0.9461 0.3238 -0.0000
vn -0.0000 0.3238 0.9461
vn -0.0000 0.3238 -0.9461
vn -0.0000 -1.0000 -0.0000
vn -0.0000 0.1570 -0.9876
vn -0.6924 -0.7215 -0.0000
vn 0.7720 -0.6356 -0.0000
s 0
usemtl Material
f 172//133 173//133 171//133
f 174//134 177//134 173//134
f 178//135 175//135 177//135
f 176//136 171//136 175//136
f 175//137 184//137 186//137
f 178//138 182//138 176//138
f 180//139 182//139 181//139
f 172//140 180//140 174//140
f 176//141 179//141 172//141
f 174//142 181//142 178//142
f 185//143 184//143 183//143
f 177//144 183//144 173//144
f 173//145 184//145 171//145
f 177//146 186//146 185//146
f 172//133 174//133 173//133
f 174//134 178//134 177//134
f 178//135 176//135 175//135
f 176//136 172//136 171//136
f 175//137 171//137 184//137
f 178//138 181//138 182//138
f 180//139 179//139 182//139
f 172//140 179//140 180//140
f 176//141 182//141 179//141
f 174//142 180//142 181//142
f 185//143 186//143 184//143
f 177//144 185//144 183//144
f 173//145 183//145 184//145
f 177//146 175//146 186//146
