# Blender 3.6.5
# www.blender.org
mtllib torpedo.mtl
o Cube
v -0.300000 -0.900616 0.300000
v -0.300000 1.811893 0.300000
v -0.300000 -0.900616 -0.300000
v -0.300000 1.811893 -0.300000
v 0.300000 -0.900616 0.300000
v 0.300000 1.811893 0.300000
v 0.300000 -0.900616 -0.300000
v 0.300000 1.811893 -0.300000
v -0.184297 2.170295 0.184297
v -0.184297 2.170295 -0.184297
v 0.184297 2.170295 -0.184297
v 0.184297 2.170295 0.184297
v -0.184297 2.421269 0.184297
v -0.184297 2.421269 -0.184297
v 0.184297 2.421269 -0.184297
v 0.184297 2.421269 0.184297
v -0.358462 2.769948 0.358462
v -0.358462 2.769948 -0.358462
v 0.358462 2.769948 -0.358462
v 0.358462 2.769948 0.358462
v -0.358162 3.444726 0.358162
v -0.358162 3.444726 -0.358162
v 0.358162 3.444726 -0.358162
v 0.358162 3.444726 0.358162
v -0.027095 3.917629 0.027095
v -0.027095 3.917629 -0.027095
v 0.027095 3.917629 -0.027095
v 0.027095 3.917629 0.027095
v -0.005159 -1.200619 -0.427504
v 0.076982 -1.200619 -0.419414
v 0.155966 -1.200619 -0.395455
v 0.228758 -1.200619 -0.356546
v 0.292561 -1.200619 -0.304185
v 0.344922 -1.200619 -0.240382
v 0.383830 -1.200619 -0.167590
v 0.407790 -1.200619 -0.088606
v 0.415880 -1.200619 -0.006465
v 0.407790 -1.200619 0.075675
v 0.383830 -1.200619 0.154659
v 0.344922 -1.200619 0.227451
v 0.292561 -1.200619 0.291254
v 0.228758 -1.200619 0.343616
v 0.155966 -1.200619 0.382524
v 0.076982 -1.200619 0.406483
v -0.005159 -1.200619 0.414574
v -0.087299 -1.200619 0.406483
v -0.166283 -1.200619 0.382524
v -0.239075 -1.200619 0.343616
v -0.302878 -1.200619 0.291254
v -0.355240 -1.200619 0.227451
v -0.394148 -1.200619 0.154659
v -0.418108 -1.200619 0.075675
v -0.426198 -1.200619 -0.006465
v -0.418108 -1.200619 -0.088606
v -0.394148 -1.200619 -0.167590
v -0.355240 -1.200619 -0.240382
v -0.302878 -1.200619 -0.304185
v -0.239075 -1.200619 -0.356546
v -0.166283 -1.200619 -0.395455
v -0.087299 -1.200619 -0.419414
v -0.005159 -0.600619 -0.006465
v -0.005159 -1.341422 -0.427504
v 0.076982 -1.341422 -0.419414
v 0.155966 -1.341422 -0.395455
v 0.228758 -1.341422 -0.356546
v 0.292561 -1.341422 -0.304185
v 0.344922 -1.341422 -0.240382
v 0.383830 -1.341422 -0.167590
v 0.407790 -1.341422 -0.088606
v 0.415880 -1.341422 -0.006465
v 0.407790 -1.341422 0.075675
v 0.383830 -1.341422 0.154659
v 0.344922 -1.341422 0.227451
v 0.292561 -1.341422 0.291254
v 0.228758 -1.341422 0.343616
v 0.155966 -1.341422 0.382524
v 0.076982 -1.341422 0.406483
v -0.005159 -1.341422 0.414574
v -0.087299 -1.341422 0.406483
v -0.166283 -1.341422 0.382524
v -0.239075 -1.341422 0.343616
v -0.302878 -1.341422 0.291254
v -0.355240 -1.341422 0.227451
v -0.394148 -1.341422 0.154659
v -0.418108 -1.341422 0.075675
v -0.426198 -1.341422 -0.006465
v -0.418108 -1.341422 -0.088606
v -0.394148 -1.341422 -0.167590
v -0.355240 -1.341422 -0.240382
v -0.302878 -1.341422 -0.304185
v -0.239075 -1.341422 -0.356546
v -0.166283 -1.341422 -0.395455
v -0.087299 -1.341422 -0.419414
vn -1.0000 -0.0000 -0.0000
vn -0.0000 -0.0000 -1.0000
vn 1.0000 -0.0000 -0.0000
vn -0.0000 -0.0000 1.0000
vn -0.0000 -1.0000 -0.0000
vn 0.9516 0.3072 -0.0000
vn -0.9516 0.3072 -0.0000
vn -0.0000 0.3072 0.9516
vn -0.0000 0.3072 -0.9516
vn -0.0000 -0.4469 -0.8946
vn 1.0000 0.0004 -0.0000
vn 0.8946 -0.4469 -0.0000
vn -0.8946 -0.4469 -0.0000
vn -0.0000 -0.4469 0.8946
vn -0.0000 0.5735 -0.8192
vn -1.0000 0.0004 -0.0000
vn -0.0000 0.0004 1.0000
vn -0.0000 0.0004 -1.0000
vn -0.0000 1.0000 -0.0000
vn 0.8192 0.5735 -0.0000
vn -0.8192 0.5735 -0.0000
vn -0.0000 0.5735 0.8192
vn 0.0804 0.5726 -0.8159
vn 0.2380 0.5726 -0.7846
vn 0.3865 0.5726 -0.7231
vn 0.5201 0.5726 -0.6338
vn 0.6338 0.5726 -0.5201
vn 0.7231 0.5726 -0.3865
vn 0.7846 0.5726 -0.2380
vn 0.8159 0.5726 -0.0804
vn 0.8159 0.5726 0.0804
vn 0.7846 0.5726 0.2380
vn 0.7231 0.5726 0.3865
vn 0.6338 0.5726 0.5201
vn 0.5201 0.5726 0.6338
vn 0.3865 0.5726 0.7231
vn 0.2380 0.5726 0.7846
vn 0.0804 0.5726 0.8159
vn -0.0804 0.5726 0.8159
vn -0.2380 0.5726 0.7846
vn -0.3865 0.5726 0.7231
vn -0.5201 0.5726 0.6338
vn -0.6338 0.5726 0.5201
vn -0.7231 0.5726 0.3865
vn -0.7846 0.5726 0.2380
vn -0.8159 0.5726 0.0804
vn -0.8159 0.5726 -0.0804
vn -0.7846 0.5726 -0.2380
vn -0.7231 0.5726 -0.3865
vn -0.6338 0.5726 -0.5201
vn -0.5201 0.5726 -0.6338
vn -0.3865 0.5726 -0.7231
vn -0.4714 -0.0000 0.8819
vn -0.2380 0.5726 -0.7846
vn -0.0804 0.5726 -0.8159
vn -0.9569 -0.0000 -0.2903
vn 0.8819 -0.0000 -0.4714
vn 0.6344 -0.0000 0.7730
vn -0.6344 -0.0000 0.7730
vn -0.8819 -0.0000 -0.4714
vn 0.9569 -0.0000 -0.2903
vn 0.0980 -0.0000 -0.9952
vn 0.4714 -0.0000 0.8819
vn -0.7730 -0.0000 0.6344
vn -0.7730 -0.0000 -0.6344
vn 0.9952 -0.0000 -0.0980
vn 0.2903 -0.0000 0.9569
vn -0.8819 -0.0000 0.4714
vn 0.2903 -0.0000 -0.9569
vn -0.6344 -0.0000 -0.7730
vn 0.9952 -0.0000 0.0980
vn 0.0980 -0.0000 0.9952
vn -0.9569 -0.0000 0.2903
vn 0.4714 -0.0000 -0.8819
vn -0.4714 -0.0000 -0.8819
vn 0.9569 -0.0000 0.2903
vn -0.0980 -0.0000 0.9952
vn -0.9952 -0.0000 0.0980
vn 0.6344 -0.0000 -0.7730
vn -0.2903 -0.0000 -0.9569
vn 0.8819 -0.0000 0.4714
vn -0.2903 -0.0000 0.9569
vn -0.9952 -0.0000 -0.0980
vn 0.7730 -0.0000 -0.6344
vn -0.0980 -0.0000 -0.9952
vn 0.7730 -0.0000 0.6344
s 0
usemtl Material.001
f 2//1 3//1 1//1
f 4//2 7//2 3//2
f 8//3 5//3 7//3
f 6//4 1//4 5//4
f 7//5 1//5 3//5
f 8//6 12//6 6//6
f 12//4 13//4 9//4
f 2//7 10//7 4//7
f 6//8 9//8 2//8
f 4//9 11//9 8//9
f 14//10 19//10 15//10
f 10//2 15//2 11//2
f 11//3 16//3 12//3
f 9//1 14//1 10//1
f 19//11 24//11 20//11
f 15//12 20//12 16//12
f 13//13 18//13 14//13
f 16//14 17//14 13//14
f 23//15 26//15 27//15
f 17//16 22//16 18//16
f 20//17 21//17 17//17
f 18//18 23//18 19//18
f 26//19 28//19 27//19
f 24//20 27//20 28//20
f 22//21 25//21 26//21
f 21//22 28//22 25//22
f 29//23 61//23 30//23
f 30//24 61//24 31//24
f 31//25 61//25 32//25
f 32//26 61//26 33//26
f 33//27 61//27 34//27
f 34//28 61//28 35//28
f 35//29 61//29 36//29
f 36//30 61//30 37//30
f 37//31 61//31 38//31
f 38//32 61//32 39//32
f 39//33 61//33 40//33
f 40//34 61//34 41//34
f 41//35 61//35 42//35
f 42//36 61//36 43//36
f 43//37 61//37 44//37
f 44//38 61//38 45//38
f 45//39 61//39 46//39
f 46//40 61//40 47//40
f 47//41 61//41 48//41
f 48//42 61//42 49//42
f 49//43 61//43 50//43
f 50//44 61//44 51//44
f 51//45 61//45 52//45
f 52//46 61//46 53//46
f 53//47 61//47 54//47
f 54//48 61//48 55//48
f 55//49 61//49 56//49
f 56//50 61//50 57//50
f 57//51 61//51 58//51
f 58//52 61//52 59//52
f 48//53 80//53 47//53
f 59//54 61//54 60//54
f 60//55 61//55 29//55
f 77//5 85//5 93//5
f 55//56 87//56 54//56
f 35//57 67//57 34//57
f 42//58 74//58 41//58
f 49//59 81//59 48//59
f 56//60 88//60 55//60
f 36//61 68//61 35//61
f 30//62 62//62 29//62
f 43//63 75//63 42//63
f 50//64 82//64 49//64
f 57//65 89//65 56//65
f 37//66 69//66 36//66
f 44//67 76//67 43//67
f 51//68 83//68 50//68
f 31//69 63//69 30//69
f 58//70 90//70 57//70
f 38//71 70//71 37//71
f 45//72 77//72 44//72
f 52//73 84//73 51//73
f 32//74 64//74 31//74
f 59//75 91//75 58//75
f 39//76 71//76 38//76
f 46//77 78//77 45//77
f 53//78 85//78 52//78
f 33//79 65//79 32//79
f 60//80 92//80 59//80
f 40//81 72//81 39//81
f 47//82 79//82 46//82
f 54//83 86//83 53//83
f 34//84 66//84 33//84
f 29//85 93//85 60//85
f 41//86 73//86 40//86
f 2//1 4//1 3//1
f 4//2 8//2 7//2
f 8//3 6//3 5//3
f 6//4 2//4 1//4
f 7//5 5//5 1//5
f 8//6 11//6 12//6
f 12//4 16//4 13//4
f 2//7 9//7 10//7
f 6//8 12//8 9//8
f 4//9 10//9 11//9
f 14//10 18//10 19//10
f 10//2 14//2 15//2
f 11//3 15//3 16//3
f 9//1 13//1 14//1
f 19//11 23//11 24//11
f 15//12 19//12 20//12
f 13//13 17//13 18//13
f 16//14 20//14 17//14
f 23//15 22//15 26//15
f 17//16 21//16 22//16
f 20//17 24//17 21//17
f 18//18 22//18 23//18
f 26//19 25//19 28//19
f 24//20 23//20 27//20
f 22//21 21//21 25//21
f 21//22 24//22 28//22
f 48//53 81//53 80//53
f 93//5 62//5 63//5
f 63//5 64//5 65//5
f 65//5 66//5 67//5
f 67//5 68//5 69//5
f 69//5 70//5 71//5
f 71//5 72//5 73//5
f 73//5 74//5 75//5
f 75//5 76//5 77//5
f 77//5 78//5 79//5
f 79//5 80//5 81//5
f 81//5 82//5 83//5
f 83//5 84//5 85//5
f 85//5 86//5 87//5
f 87//5 88//5 89//5
f 89//5 90//5 91//5
f 91//5 92//5 93//5
f 93//5 63//5 65//5
f 65//5 67//5 69//5
f 69//5 71//5 73//5
f 73//5 75//5 77//5
f 77//5 79//5 81//5
f 81//5 83//5 85//5
f 85//5 87//5 89//5
f 89//5 91//5 93//5
f 93//5 65//5 69//5
f 69//5 73//5 77//5
f 77//5 81//5 85//5
f 85//5 89//5 93//5
f 93//5 69//5 77//5
f 55//56 88//56 87//56
f 35//57 68//57 67//57
f 42//58 75//58 74//58
f 49//59 82//59 81//59
f 56//60 89//60 88//60
f 36//61 69//61 68//61
f 30//62 63//62 62//62
f 43//63 76//63 75//63
f 50//64 83//64 82//64
f 57//65 90//65 89//65
f 37//66 70//66 69//66
f 44//67 77//67 76//67
f 51//68 84//68 83//68
f 31//69 64//69 63//69
f 58//70 91//70 90//70
f 38//71 71//71 70//71
f 45//72 78//72 77//72
f 52//73 85//73 84//73
f 32//74 65//74 64//74
f 59//75 92//75 91//75
f 39//76 72//76 71//76
f 46//77 79//77 78//77
f 53//78 86//78 85//78
f 33//79 66//79 65//79
f 60//80 93//80 92//80
f 40//81 73//81 72//81
f 47//82 80//82 79//82
f 54//83 87//83 86//83
f 34//84 67//84 66//84
f 29//85 62//85 93//85
f 41//86 74//86 73//86
